<svg width="592" height="454" viewBox="0 0 592 454" fill="none" xmlns="http://www.w3.org/2000/svg">
<path fill-rule="evenodd" clip-rule="evenodd" d="M5.14698 435.632C10.6075 440.97 13.9012 445.573 15.9474 450.726L17.247 454H32.9703H48.6929L49.3074 451.121C49.645 449.538 50.4163 447.218 51.0203 445.966C52.4937 442.913 56.8837 438.902 60.7234 437.102C63.4991 435.801 64.5159 435.632 69.613 435.632C74.7101 435.632 75.7269 435.801 78.5027 437.102C84.6768 439.996 89.2428 445.771 89.78 451.363L90.0332 454H107.732H125.432L126.046 451.121C126.384 449.538 127.155 447.218 127.759 445.966C129.232 442.913 133.622 438.902 137.462 437.102C140.238 435.801 141.255 435.632 146.352 435.632C151.449 435.632 152.466 435.801 155.241 437.102C161.416 439.996 165.982 445.771 166.519 451.363L166.772 454H184.166H201.56L201.888 451.239C202.552 445.625 207.079 439.928 213.128 437.091C215.878 435.802 216.908 435.632 221.994 435.632C227.177 435.632 228.089 435.789 231.16 437.208C237.02 439.916 241.579 445.708 242.543 451.67L242.92 454H260.075H277.231L277.62 451.408C278.637 444.622 283.713 438.93 290.909 436.505C303.05 432.414 316.451 439.732 318.202 451.408L318.59 454H335.749H352.907L353.522 451.121C353.859 449.538 354.631 447.218 355.235 445.966C356.708 442.913 361.098 438.902 364.938 437.102C367.713 435.801 368.73 435.632 373.827 435.632C378.914 435.632 379.944 435.802 382.693 437.091C388.743 439.928 393.27 445.625 393.934 451.239L394.261 454H410.08H425.9V452.361C425.9 449.988 427.703 445.603 429.734 443.039C436.311 434.731 449.575 432.88 458.621 439.005C463.038 441.996 466.017 446.543 466.746 451.408L467.135 454H483.791H500.446V452.361C500.446 447.949 504.376 441.744 509.058 438.764C521.614 430.77 539.025 437.745 541.276 451.67L541.653 454H558.323C572.499 454 574.993 453.882 574.993 453.207C574.993 451.665 579.359 444 582.341 440.31C584.002 438.253 586.851 435.273 588.673 433.689L591.985 430.807V415.263V399.719H590.164C584.734 399.719 578.501 395.128 575.417 388.856C573.718 385.402 573.622 384.884 573.625 379.167C573.628 373.451 573.72 372.951 575.359 369.838C578.538 363.798 582.814 360.465 589.107 359.121L591.985 358.507V341.281V324.056H590.361C585.02 324.056 577.967 318.801 575.104 312.688C573.775 309.853 573.622 308.903 573.622 303.495C573.622 297.931 573.747 297.209 575.234 294.181C578.151 288.236 583.513 284.08 589.405 283.197L591.985 282.809V265.663V248.516L589.547 248.151C585.881 247.601 580.751 244.803 578.604 242.182C577.573 240.923 576.03 238.536 575.176 236.878C573.747 234.104 573.622 233.379 573.622 227.831C573.622 222.446 573.778 221.466 575.08 218.688C577.917 212.634 583.612 208.109 589.232 207.443L592 207.116L591.855 189.791L591.711 172.467L589.097 172.093C583.366 171.273 577.961 166.909 575.091 160.785C573.776 157.978 573.623 157.018 573.625 151.619C573.628 145.877 573.712 145.43 575.39 142.298C579.005 135.554 582.492 133.024 590.477 131.352L591.985 131.037V113.574V96.1101L588.789 95.4812C583.194 94.3802 578.68 90.7522 575.409 84.7276C573.686 81.5563 573.622 81.2114 573.622 75.1325C573.622 68.995 573.672 68.7351 575.495 65.3714C578.839 59.2037 583.223 56.0455 590.477 54.581L591.985 54.2768V39.1621V24.0474L587.106 19.297C582.113 14.4364 577.402 7.83011 575.702 3.30673C575.192 1.94971 574.516 0.657959 574.198 0.436462C573.881 0.214935 566.408 0.0301819 557.589 0.025238C542.452 0.0175476 541.556 0.072937 541.556 1.01379C541.556 3.02216 539.892 7.53568 538.219 10.0611C531.604 20.0504 515.425 21.6217 506.254 13.1655C503.468 10.5962 501.188 6.42099 500.559 2.73376L500.142 0.291138L483.652 0.146393L467.161 0.00106812L466.823 2.46951C466.014 8.37842 461.737 13.8355 455.52 16.8922C452.775 18.2421 451.909 18.3847 446.455 18.3847C441.072 18.3847 440.092 18.2284 437.315 16.9262C431.352 14.1299 427.031 8.70517 426.012 2.73376L425.596 0.291138H410.032H394.469L393.864 3.32205C392.695 9.17944 388.553 14.204 382.663 16.9103C378.571 18.791 371.358 19.2323 367.16 17.8594C359.729 15.4277 354.53 9.50732 353.29 2.0654L352.946 0.00167847L335.884 0.146393L318.823 0.291138L318.191 3.03259C316.092 12.1528 309.024 18.0195 299.505 18.5431C288.181 19.166 279.217 12.5328 277.584 2.32422L277.215 0.0169983H260.019C243.761 0.0169983 242.823 0.0712891 242.823 1.01379C242.823 1.56262 242.459 3.23929 242.013 4.73996C239.362 13.67 230.967 19.081 220.561 18.5689C211.118 18.104 202.998 11.2821 201.784 2.79572L201.426 0.291138H184.173H166.92L166.562 2.79572C165.745 8.50726 161.212 14.1426 155.218 16.8966C151.094 18.7915 143.898 19.2372 139.685 17.8594C132.254 15.4277 127.054 9.50732 125.814 2.0654L125.47 0.00167847L107.826 0.146393L90.1812 0.291138L89.8233 2.79572C89.0071 8.50726 84.4735 14.1426 78.4791 16.8966C74.3555 18.7915 67.159 19.2372 62.9461 17.8594C55.515 15.4277 50.316 9.50732 49.075 2.06485L48.7313 0L33.0865 0.145844L17.4416 0.291138L16.0565 3.58087C13.7686 9.0155 10.0254 14.2763 4.87401 19.297L0 24.0474L0 39.1621L0 54.2768L1.50737 54.586C10.0791 56.3465 15.0249 60.4171 17.5655 67.8041C18.9945 71.9591 19.0049 78.498 17.5891 82.5279C15.0189 89.842 10.0188 93.9312 1.50737 95.6791L0 95.9883L0 113.452L0 130.915L3.25866 131.556C7.328 132.357 12.2535 135.544 14.7092 138.964C19.9658 146.286 19.9926 157.462 14.7711 164.736C11.7553 168.936 6.12485 172.18 1.8494 172.18H0L0 189.649L0 207.117L2.7034 207.437C9.31937 208.221 15.3889 213.626 17.7815 220.864C19.2368 225.268 18.8185 232.859 16.8929 236.985C14.2235 242.705 8.41166 247.148 2.32957 248.117L0 248.488L0 265.637L0 282.785L2.44358 283.12C8.25764 283.917 13.7467 288.062 16.5608 293.78C18.2671 297.247 18.3625 297.76 18.3625 303.483C18.3625 308.881 18.2068 309.858 16.9045 312.637C14.0553 318.716 8.52184 323.066 2.64584 323.846L0 324.197L0 341.349L0 358.501L2.32957 358.872C8.41002 359.842 13.9725 364.12 16.7882 369.993C18.943 374.488 19.2669 381.644 17.5496 386.806C15.3631 393.379 8.7981 399.013 2.63652 399.605L0 399.859L0.0493321 415.278L0.0986641 430.698L5.14698 435.632Z" fill="url(#paint0_linear_40_14)"/>
<defs>
<linearGradient id="paint0_linear_40_14" x1="0" y1="0" x2="592" y2="454" gradientUnits="userSpaceOnUse">
<stop stop-color="#FFE784"/>
<stop offset="1" stop-color="#4A9166"/>
</linearGradient>
</defs>
</svg>
