<svg xmlns="http://www.w3.org/2000/svg" width="320" height="380" viewBox="0 0 320 380" role="img" aria-label="QRIS Pembayaran Reunusa">
  <rect width="320" height="380" rx="20" fill="#ffffff" stroke="#122f18" stroke-width="2"/>
  <rect x="20" y="20" width="280" height="60" fill="#122f18"/>
  <text x="160" y="58" text-anchor="middle" font-family="Arial,Helvetica,sans-serif" font-size="26" font-weight="700" fill="#faf6f0" letter-spacing="3">QRIS</text>
  <g transform="translate(40,100)" fill="#122f18">
    <!-- Fake QR pattern -->
    <rect x="0" y="0" width="60" height="60"/>
    <rect x="10" y="10" width="40" height="40" fill="#fff"/>
    <rect x="20" y="20" width="20" height="20"/>
    <rect x="180" y="0" width="60" height="60"/>
    <rect x="190" y="10" width="40" height="40" fill="#fff"/>
    <rect x="200" y="20" width="20" height="20"/>
    <rect x="0" y="180" width="60" height="60"/>
    <rect x="10" y="190" width="40" height="40" fill="#fff"/>
    <rect x="20" y="200" width="20" height="20"/>
    <g>
      <rect x="80" y="10" width="10" height="10"/>
      <rect x="100" y="10" width="10" height="10"/>
      <rect x="120" y="20" width="10" height="10"/>
      <rect x="140" y="10" width="10" height="10"/>
      <rect x="160" y="20" width="10" height="10"/>
      <rect x="80" y="30" width="10" height="10"/>
      <rect x="110" y="40" width="10" height="10"/>
      <rect x="130" y="30" width="10" height="10"/>
      <rect x="150" y="40" width="10" height="10"/>
      <rect x="80" y="60" width="10" height="10"/>
      <rect x="100" y="70" width="10" height="10"/>
      <rect x="120" y="60" width="10" height="10"/>
      <rect x="140" y="80" width="10" height="10"/>
      <rect x="160" y="60" width="10" height="10"/>
      <rect x="180" y="80" width="10" height="10"/>
      <rect x="200" y="70" width="10" height="10"/>
      <rect x="220" y="80" width="10" height="10"/>
      <rect x="80" y="90" width="10" height="10"/>
      <rect x="100" y="100" width="10" height="10"/>
      <rect x="120" y="110" width="10" height="10"/>
      <rect x="140" y="100" width="10" height="10"/>
      <rect x="160" y="120" width="10" height="10"/>
      <rect x="180" y="100" width="10" height="10"/>
      <rect x="200" y="120" width="10" height="10"/>
      <rect x="220" y="100" width="10" height="10"/>
      <rect x="80" y="140" width="10" height="10"/>
      <rect x="100" y="150" width="10" height="10"/>
      <rect x="120" y="160" width="10" height="10"/>
      <rect x="140" y="150" width="10" height="10"/>
      <rect x="160" y="170" width="10" height="10"/>
      <rect x="180" y="150" width="10" height="10"/>
      <rect x="200" y="160" width="10" height="10"/>
      <rect x="220" y="170" width="10" height="10"/>
      <rect x="70" y="190" width="10" height="10"/>
      <rect x="90" y="200" width="10" height="10"/>
      <rect x="110" y="190" width="10" height="10"/>
      <rect x="130" y="210" width="10" height="10"/>
      <rect x="150" y="200" width="10" height="10"/>
      <rect x="170" y="220" width="10" height="10"/>
      <rect x="190" y="200" width="10" height="10"/>
      <rect x="210" y="210" width="10" height="10"/>
      <rect x="80" y="230" width="10" height="10"/>
      <rect x="100" y="220" width="10" height="10"/>
      <rect x="120" y="240" width="10" height="10"/>
      <rect x="140" y="230" width="10" height="10"/>
      <rect x="160" y="220" width="10" height="10"/>
      <rect x="180" y="240" width="10" height="10"/>
      <rect x="200" y="230" width="10" height="10"/>
      <rect x="220" y="220" width="10" height="10"/>
    </g>
  </g>
  <text x="160" y="360" text-anchor="middle" font-family="Arial,Helvetica,sans-serif" font-size="13" fill="#122f18">REUNUSA 2026 • Placeholder QRIS</text>
</svg>